<mxfile host="app.diagrams.net" modified="2023-02-15T17:02:52.795Z" agent="5.0 (Windows NT 10.0; Win64; x64) AppleWebKit/537.36 (KHTML, like Gecko) Chrome/86.0.4240.198 Safari/537.36" etag="JU11I_PoFoXmtTQolBNs" version="20.8.20" type="github">
  <diagram name="PÃ¡gina-1" id="wShxXtrG-JfoHBNT4NPI">
    <mxGraphModel dx="838" dy="453" grid="1" gridSize="10" guides="1" tooltips="1" connect="1" arrows="1" fold="1" page="1" pageScale="1" pageWidth="1390" pageHeight="980" math="0" shadow="0">
      <root>
        <mxCell id="0" />
        <mxCell id="1" parent="0" />
        <mxCell id="j8kulYyNWZjgf7Js5gf3-1" value="&lt;font style=&quot;font-size: 28px;&quot;&gt;DER MODELO CONCEITUAL SISDOC - TREINAMENTO&lt;/font&gt;" style="text;html=1;strokeColor=none;fillColor=none;align=center;verticalAlign=middle;whiteSpace=wrap;rounded=0;" vertex="1" parent="1">
          <mxGeometry x="11" y="30" width="1349" height="30" as="geometry" />
        </mxCell>
        <mxCell id="j8kulYyNWZjgf7Js5gf3-2" value="VIDEO" style="rounded=0;whiteSpace=wrap;html=1;fillColor=#f5f5f5;gradientColor=#b3b3b3;strokeColor=#666666;" vertex="1" parent="1">
          <mxGeometry x="190" y="380" width="120" height="60" as="geometry" />
        </mxCell>
        <mxCell id="j8kulYyNWZjgf7Js5gf3-3" value="&lt;u&gt;cd_video&lt;/u&gt;" style="ellipse;whiteSpace=wrap;html=1;" vertex="1" parent="1">
          <mxGeometry x="60" y="256" width="70" height="50" as="geometry" />
        </mxCell>
        <mxCell id="j8kulYyNWZjgf7Js5gf3-4" value="&lt;u&gt;cd_treinamento&lt;/u&gt;" style="ellipse;whiteSpace=wrap;html=1;" vertex="1" parent="1">
          <mxGeometry x="60" y="190" width="120" height="60" as="geometry" />
        </mxCell>
        <mxCell id="j8kulYyNWZjgf7Js5gf3-5" value="nm_video" style="ellipse;whiteSpace=wrap;html=1;" vertex="1" parent="1">
          <mxGeometry x="150" y="150" width="100" height="50" as="geometry" />
        </mxCell>
        <mxCell id="j8kulYyNWZjgf7Js5gf3-6" value="&lt;u&gt;cd_usuario&lt;/u&gt;" style="ellipse;whiteSpace=wrap;html=1;" vertex="1" parent="1">
          <mxGeometry x="250" y="180" width="90" height="50" as="geometry" />
        </mxCell>
        <mxCell id="j8kulYyNWZjgf7Js5gf3-7" value="sn_ativo" style="ellipse;whiteSpace=wrap;html=1;" vertex="1" parent="1">
          <mxGeometry x="320" y="140" width="100" height="50" as="geometry" />
        </mxCell>
        <mxCell id="j8kulYyNWZjgf7Js5gf3-8" value="dt_gravacao_alteracao" style="ellipse;whiteSpace=wrap;html=1;" vertex="1" parent="1">
          <mxGeometry x="390" y="195" width="160" height="50" as="geometry" />
        </mxCell>
        <mxCell id="j8kulYyNWZjgf7Js5gf3-10" value="ds_caminho" style="ellipse;whiteSpace=wrap;html=1;" vertex="1" parent="1">
          <mxGeometry x="420" y="256" width="100" height="50" as="geometry" />
        </mxCell>
        <mxCell id="j8kulYyNWZjgf7Js5gf3-11" value="tam_video" style="ellipse;whiteSpace=wrap;html=1;" vertex="1" parent="1">
          <mxGeometry x="420" y="320" width="100" height="50" as="geometry" />
        </mxCell>
        <mxCell id="j8kulYyNWZjgf7Js5gf3-12" value="" style="endArrow=none;html=1;rounded=0;fontSize=28;entryX=0.761;entryY=0.978;entryDx=0;entryDy=0;entryPerimeter=0;exitX=0.25;exitY=0;exitDx=0;exitDy=0;" edge="1" parent="1" source="j8kulYyNWZjgf7Js5gf3-2" target="j8kulYyNWZjgf7Js5gf3-4">
          <mxGeometry width="50" height="50" relative="1" as="geometry">
            <mxPoint x="130" y="380" as="sourcePoint" />
            <mxPoint x="180" y="330" as="targetPoint" />
          </mxGeometry>
        </mxCell>
        <mxCell id="j8kulYyNWZjgf7Js5gf3-13" value="" style="endArrow=none;html=1;rounded=0;fontSize=28;entryX=0.5;entryY=1;entryDx=0;entryDy=0;exitX=0.358;exitY=0.033;exitDx=0;exitDy=0;exitPerimeter=0;" edge="1" parent="1" source="j8kulYyNWZjgf7Js5gf3-2" target="j8kulYyNWZjgf7Js5gf3-5">
          <mxGeometry width="50" height="50" relative="1" as="geometry">
            <mxPoint x="170" y="370" as="sourcePoint" />
            <mxPoint x="220" y="320" as="targetPoint" />
          </mxGeometry>
        </mxCell>
        <mxCell id="j8kulYyNWZjgf7Js5gf3-14" value="" style="endArrow=none;html=1;rounded=0;fontSize=28;entryX=0.5;entryY=1;entryDx=0;entryDy=0;exitX=0.5;exitY=0;exitDx=0;exitDy=0;" edge="1" parent="1" source="j8kulYyNWZjgf7Js5gf3-2" target="j8kulYyNWZjgf7Js5gf3-6">
          <mxGeometry width="50" height="50" relative="1" as="geometry">
            <mxPoint x="230" y="340" as="sourcePoint" />
            <mxPoint x="280" y="290" as="targetPoint" />
          </mxGeometry>
        </mxCell>
        <mxCell id="j8kulYyNWZjgf7Js5gf3-15" value="" style="endArrow=none;html=1;rounded=0;fontSize=28;entryX=0.5;entryY=1;entryDx=0;entryDy=0;" edge="1" parent="1" target="j8kulYyNWZjgf7Js5gf3-7">
          <mxGeometry width="50" height="50" relative="1" as="geometry">
            <mxPoint x="270" y="380" as="sourcePoint" />
            <mxPoint x="320" y="330" as="targetPoint" />
          </mxGeometry>
        </mxCell>
        <mxCell id="j8kulYyNWZjgf7Js5gf3-16" value="" style="endArrow=none;html=1;rounded=0;fontSize=28;entryX=0;entryY=1;entryDx=0;entryDy=0;exitX=0.858;exitY=-0.05;exitDx=0;exitDy=0;exitPerimeter=0;" edge="1" parent="1" source="j8kulYyNWZjgf7Js5gf3-2" target="j8kulYyNWZjgf7Js5gf3-8">
          <mxGeometry width="50" height="50" relative="1" as="geometry">
            <mxPoint x="270" y="380" as="sourcePoint" />
            <mxPoint x="320" y="330" as="targetPoint" />
          </mxGeometry>
        </mxCell>
        <mxCell id="j8kulYyNWZjgf7Js5gf3-17" value="" style="endArrow=none;html=1;rounded=0;fontSize=28;entryX=0;entryY=1;entryDx=0;entryDy=0;exitX=1;exitY=0;exitDx=0;exitDy=0;" edge="1" parent="1" source="j8kulYyNWZjgf7Js5gf3-2" target="j8kulYyNWZjgf7Js5gf3-10">
          <mxGeometry width="50" height="50" relative="1" as="geometry">
            <mxPoint x="290" y="356" as="sourcePoint" />
            <mxPoint x="340" y="306" as="targetPoint" />
          </mxGeometry>
        </mxCell>
        <mxCell id="j8kulYyNWZjgf7Js5gf3-18" value="" style="endArrow=none;html=1;rounded=0;fontSize=28;entryX=0;entryY=1;entryDx=0;entryDy=0;" edge="1" parent="1" target="j8kulYyNWZjgf7Js5gf3-11">
          <mxGeometry width="50" height="50" relative="1" as="geometry">
            <mxPoint x="310" y="410" as="sourcePoint" />
            <mxPoint x="350" y="370" as="targetPoint" />
          </mxGeometry>
        </mxCell>
        <mxCell id="j8kulYyNWZjgf7Js5gf3-19" value="" style="endArrow=none;html=1;rounded=0;fontSize=28;entryX=1;entryY=1;entryDx=0;entryDy=0;exitX=0;exitY=0.25;exitDx=0;exitDy=0;" edge="1" parent="1" source="j8kulYyNWZjgf7Js5gf3-2" target="j8kulYyNWZjgf7Js5gf3-3">
          <mxGeometry width="50" height="50" relative="1" as="geometry">
            <mxPoint x="710" y="230" as="sourcePoint" />
            <mxPoint x="760" y="180" as="targetPoint" />
          </mxGeometry>
        </mxCell>
        <mxCell id="j8kulYyNWZjgf7Js5gf3-20" value="TREINAMENTO" style="rounded=0;whiteSpace=wrap;html=1;fillColor=#f5f5f5;gradientColor=#b3b3b3;strokeColor=#666666;" vertex="1" parent="1">
          <mxGeometry x="770" y="380" width="120" height="60" as="geometry" />
        </mxCell>
        <mxCell id="j8kulYyNWZjgf7Js5gf3-21" value="&lt;u&gt;cd_treinamento&lt;/u&gt;" style="ellipse;whiteSpace=wrap;html=1;" vertex="1" parent="1">
          <mxGeometry x="610" y="306" width="120" height="60" as="geometry" />
        </mxCell>
        <mxCell id="j8kulYyNWZjgf7Js5gf3-22" value="&lt;u&gt;cd_usuario&lt;/u&gt;" style="ellipse;whiteSpace=wrap;html=1;" vertex="1" parent="1">
          <mxGeometry x="670" y="256" width="90" height="50" as="geometry" />
        </mxCell>
        <mxCell id="j8kulYyNWZjgf7Js5gf3-23" value="dt_gravacao_alteracao" style="ellipse;whiteSpace=wrap;html=1;" vertex="1" parent="1">
          <mxGeometry x="720" y="206" width="160" height="50" as="geometry" />
        </mxCell>
        <mxCell id="j8kulYyNWZjgf7Js5gf3-24" value="nm_treinamento" style="ellipse;whiteSpace=wrap;html=1;" vertex="1" parent="1">
          <mxGeometry x="840" y="245" width="120" height="44" as="geometry" />
        </mxCell>
        <mxCell id="j8kulYyNWZjgf7Js5gf3-26" value="sn_ativo" style="ellipse;whiteSpace=wrap;html=1;" vertex="1" parent="1">
          <mxGeometry x="910" y="289" width="120" height="44" as="geometry" />
        </mxCell>
        <mxCell id="j8kulYyNWZjgf7Js5gf3-27" value="" style="endArrow=none;html=1;rounded=0;fontSize=28;exitX=0.5;exitY=1;exitDx=0;exitDy=0;entryX=0;entryY=0.25;entryDx=0;entryDy=0;" edge="1" parent="1" source="j8kulYyNWZjgf7Js5gf3-21" target="j8kulYyNWZjgf7Js5gf3-20">
          <mxGeometry width="50" height="50" relative="1" as="geometry">
            <mxPoint x="670" y="330" as="sourcePoint" />
            <mxPoint x="720" y="280" as="targetPoint" />
          </mxGeometry>
        </mxCell>
        <mxCell id="j8kulYyNWZjgf7Js5gf3-28" value="" style="endArrow=none;html=1;rounded=0;fontSize=28;entryX=1;entryY=1;entryDx=0;entryDy=0;exitX=0.333;exitY=0;exitDx=0;exitDy=0;exitPerimeter=0;" edge="1" parent="1" source="j8kulYyNWZjgf7Js5gf3-20" target="j8kulYyNWZjgf7Js5gf3-22">
          <mxGeometry width="50" height="50" relative="1" as="geometry">
            <mxPoint x="670" y="330" as="sourcePoint" />
            <mxPoint x="720" y="280" as="targetPoint" />
          </mxGeometry>
        </mxCell>
        <mxCell id="j8kulYyNWZjgf7Js5gf3-29" value="" style="endArrow=none;html=1;rounded=0;fontSize=28;entryX=0.5;entryY=1;entryDx=0;entryDy=0;exitX=0.394;exitY=0.006;exitDx=0;exitDy=0;exitPerimeter=0;" edge="1" parent="1" source="j8kulYyNWZjgf7Js5gf3-20" target="j8kulYyNWZjgf7Js5gf3-23">
          <mxGeometry width="50" height="50" relative="1" as="geometry">
            <mxPoint x="670" y="330" as="sourcePoint" />
            <mxPoint x="720" y="280" as="targetPoint" />
          </mxGeometry>
        </mxCell>
        <mxCell id="j8kulYyNWZjgf7Js5gf3-30" value="" style="endArrow=none;html=1;rounded=0;fontSize=28;entryX=0.302;entryY=1.019;entryDx=0;entryDy=0;entryPerimeter=0;" edge="1" parent="1" source="j8kulYyNWZjgf7Js5gf3-20" target="j8kulYyNWZjgf7Js5gf3-24">
          <mxGeometry width="50" height="50" relative="1" as="geometry">
            <mxPoint x="670" y="330" as="sourcePoint" />
            <mxPoint x="720" y="280" as="targetPoint" />
          </mxGeometry>
        </mxCell>
        <mxCell id="j8kulYyNWZjgf7Js5gf3-31" value="" style="endArrow=none;html=1;rounded=0;fontSize=28;entryX=0.338;entryY=1.015;entryDx=0;entryDy=0;entryPerimeter=0;" edge="1" parent="1" target="j8kulYyNWZjgf7Js5gf3-26">
          <mxGeometry width="50" height="50" relative="1" as="geometry">
            <mxPoint x="880" y="380" as="sourcePoint" />
            <mxPoint x="720" y="280" as="targetPoint" />
          </mxGeometry>
        </mxCell>
      </root>
    </mxGraphModel>
  </diagram>
</mxfile>
